<svg version="1.1" xmlns="http://www.w3.org/2000/svg" xmlns:xlink="http://www.w3.org/1999/xlink" viewBox="0 0 50 48"><path d="M17.143 37.714q0-1.393-1.018-2.411t-2.411-1.018-2.411 1.018-1.018 2.411 1.018 2.411 2.411 1.018 2.411-1.018 1.018-2.411zM6.857 24h10.286v-6.857h-4.232q-0.348 0-0.589 0.241l-5.223 5.223q-0.241 0.241-0.241 0.589v0.804zM41.143 37.714q0-1.393-1.018-2.411t-2.411-1.018-2.411 1.018-1.018 2.411 1.018 2.411 2.411 1.018 2.411-1.018 1.018-2.411zM48 8.571v27.429q0 0.402-0.107 0.71t-0.362 0.496-0.442 0.308-0.629 0.161-0.603 0.054-0.683 0-0.603-0.013q0 2.839-2.009 4.848t-4.848 2.009-4.848-2.009-2.009-4.848h-10.286q0 2.839-2.009 4.848t-4.848 2.009-4.848-2.009-2.009-4.848h-1.714q-0.080 0-0.603 0.013t-0.683 0-0.603-0.054-0.629-0.161-0.442-0.308-0.362-0.496-0.107-0.71q0-0.696 0.509-1.205t1.205-0.509v-8.571q0-0.214-0.013-0.938t0-1.018 0.067-0.924 0.174-0.991 0.375-0.817 0.603-0.804l5.304-5.304q0.509-0.509 1.353-0.857t1.567-0.348h4.286v-5.143q0-0.696 0.509-1.205t1.205-0.509h27.429q0.696 0 1.205 0.509t0.509 1.205z"></path></svg>
